<?xml version="1.0" standalone="no"?>
<!DOCTYPE svg PUBLIC "-//W3C//DTD SVG 20010904//EN"
 "http://www.w3.org/TR/2001/REC-SVG-20010904/DTD/svg10.dtd">
<svg version="1.0" xmlns="http://www.w3.org/2000/svg"
 width="512.000000pt" height="512.000000pt" viewBox="0 0 512.000000 512.000000"
 preserveAspectRatio="xMidYMid meet">
<metadata>
Created by potrace 1.14, written by Peter Selinger 2001-2017
</metadata>
<g transform="translate(0.000000,512.000000) scale(0.100000,-0.100000)"
fill="#000000" stroke="none">
<path d="M415 5110 c-197 -41 -349 -188 -400 -385 -13 -52 -15 -307 -15 -2165
0 -2303 -4 -2154 57 -2280 38 -78 151 -189 233 -228 36 -16 92 -35 124 -41 84
-15 4208 -15 4292 0 97 18 180 64 260 143 76 76 114 142 139 242 14 54 15 300
13 2190 l-3 2129 -23 59 c-30 81 -73 144 -135 203 -63 59 -106 86 -183 116
l-59 22 -2130 1 c-1172 1 -2148 -2 -2170 -6z m3406 -1460 c2 -171 -2 -270 -14
-365 -27 -207 -70 -456 -78 -443 -3 7 -21 65 -39 128 -61 217 -168 462 -246
564 -41 54 -126 99 -234 123 -96 21 -337 25 -349 5 -4 -7 -11 -109 -15 -225
-3 -117 -11 -367 -17 -557 -6 -190 -12 -529 -12 -755 l-2 -410 28 -99 c59
-210 157 -372 289 -476 l47 -37 -337 -6 c-308 -5 -594 -21 -811 -47 -47 -5
-86 -8 -88 -6 -2 1 26 63 61 137 35 74 78 179 96 234 29 91 33 120 46 325 28
473 87 1930 78 1940 -3 3 -33 5 -67 5 -129 0 -273 -104 -386 -279 -78 -121
-190 -338 -282 -548 -40 -92 -76 -164 -80 -160 -9 10 -27 269 -40 584 -7 162
-22 354 -40 501 -16 130 -29 242 -29 248 0 6 11 8 28 5 57 -12 438 -46 710
-62 242 -16 308 -16 466 -6 232 15 816 66 1091 95 l210 23 7 -101 c4 -55 8
-206 9 -335z"/>
</g>
</svg>
